# xmcd
#
# Track frame offsets:
#  150
#  11590
#  23712
#  37921
#  52748
#  63060
#  79717
#  92623
#  106856
#  125488
#  143655
#  159669
#  177109
#  192081
#
# Disc length: 2858 seconds
#
# Revision: 0
# Processed by: cddbd v1.5.1PL2 Copyright (c) Steve Scherf et al.
# Submitted via: Collectorz.com_Music_Collector 6.9
#
DISCID=9c0b280e
DTITLE=Unknown - Duellin' Banjos
DYEAR=2000
DGENRE=Instrumental
TTITLE0=Dixie Breakdown
TTITLE1=Uncle Penn
TTITLE2=Foggy Mountain Breakdown
TTITLE3=Orange Blossom Special
TTITLE4=Think Of What You've Done
TTITLE5=The Devil Went Down To Georgia
TTITLE6=The Ballad Of jed Clampett
TTITLE7=Duelling Banjos
TTITLE8=Under The Double Eagle
TTITLE9=Beaumont Rag
TTITLE10=Catfish John
TTITLE11=Redwing
TTITLE12=Dark Hollow
TTITLE13=Turkey In The Straw
EXTD=
EXTT0=
EXTT1=
EXTT2=
EXTT3=
EXTT4=
EXTT5=
EXTT6=
EXTT7=
EXTT8=
EXTT9=
EXTT10=
EXTT11=
EXTT12=
EXTT13=
PLAYORDER=
